<svg width="17" height="13" viewBox="0 0 17 13" fill="none" xmlns="http://www.w3.org/2000/svg">
<path d="M6.488 0.799999V0.959999H1.448V5.76H6.12V5.92H1.448V11.84H6.84V12H0.12V0.799999H6.488ZM9.80625 0.815999C10.2756 0.794666 10.7343 0.783999 11.1823 0.783999C11.6409 0.783999 12.1209 0.831999 12.6223 0.927999C13.1343 1.024 13.6356 1.20533 14.1263 1.472C14.6276 1.728 15.0489 2.064 15.3903 2.48C15.7423 2.88533 16.0249 3.424 16.2383 4.096C16.4516 4.768 16.5583 5.584 16.5583 6.544C16.5583 7.504 16.3983 8.368 16.0783 9.136C15.7689 9.89333 15.3423 10.4747 14.7983 10.88C13.7423 11.6693 12.4676 12.064 10.9743 12.064C10.4516 12.064 9.90225 12.0427 9.32625 12H8.52625V0.815999H9.80625ZM9.85425 11.872C10.0783 11.8933 10.3609 11.904 10.7023 11.904C11.0436 11.904 11.2996 11.8987 11.4703 11.888C11.6409 11.8773 11.8756 11.8347 12.1743 11.76C12.4729 11.6747 12.7503 11.5627 13.0063 11.424C13.2623 11.2853 13.5289 11.0827 13.8063 10.816C14.0943 10.5387 14.3396 10.2133 14.5423 9.84C15.0009 8.96533 15.2303 7.824 15.2303 6.416C15.2303 5.41333 15.1076 4.54933 14.8623 3.824C14.6169 3.088 14.3343 2.544 14.0143 2.192C13.7049 1.84 13.3263 1.56267 12.8783 1.36C12.4303 1.14667 12.0729 1.024 11.8063 0.992C11.5396 0.959999 11.2303 0.943999 10.8783 0.943999C10.5263 0.943999 10.1849 0.959999 9.85425 0.992V11.872Z" fill="black"/>
</svg>